<svg viewBox="0 0 95 78" version="1.1" xmlns="http://www.w3.org/2000/svg" xmlns:xlink="http://www.w3.org/1999/xlink">
    <title>Logo</title>
    <desc>Created with Sketch.</desc>
    <defs></defs>
    <g id="Designer" stroke="none" stroke-width="1" fill="none" fill-rule="evenodd">
        <g id="Home_Ads" transform="translate(-57.000000, -900.000000)" fill="#FFFFFF">
            <g id="Main-Nav">
                <g id="Logo" transform="translate(57.000000, 900.000000)">
                    <g id="n2-3" stroke-width="1">
                        <path d="M82.3950539,53.7537357 L82.3686033,53.8636088 L94.8997078,53.8636088 L94.8997078,46.006 C91.9477308,48.425608 87.9070883,50.92982 82.3950539,53.7537357" id="Fill-1"></path>
                        <path d="M36.8913881,12.4558796 C42.8307339,4.18804528 52.3399266,0 64.5194871,0 C75.1295703,0 93.0819092,3.41461176 94.5211848,24.4887441 C92.3560656,23.8089595 89.6369326,23.4170684 86.2690052,23.4170684 C75.354432,23.4170684 67.9349658,27.4553417 65.8588241,37.2482516 L79.645662,37.2482516 C80.3497448,33.9321383 82.0722332,32.827468 83.9446293,32.827468 C85.5470302,32.827468 86.7935212,33.7126598 86.2854467,36.0884287 C85.7225673,38.7444894 82.169915,42.7800132 72.7490998,48.2038956 L62.6383867,54.0136848 L60.4726227,64.2439341 L58.4986763,64.2439341 L58.4986763,31.0727729 C58.4986763,21.9497817 54.9332898,18.7379893 48.6676297,18.7379893 C40.6911631,18.7379893 37.1951553,23.4531962 36.8913881,32.1339085 L36.8913881,64.260445 L0,64.260445 L0,2.34454861 L7.12808418,2.34454861 L36.8913881,2.34454861 L36.8913881,12.4558796 Z" id="Combined-Shape"></path>
                    </g>
                    <path d="M1.44748802,77.8801015 L1.44748802,75.4486366 L3.1803962,75.4486366 C4.64827138,75.4486366 5.46375758,74.4474451 5.46375758,73.2623614 C5.46375758,72.0670614 4.65846495,71.0658699 3.1803962,71.0658699 L0,71.0658699 L0,77.8801015 L1.44748802,77.8801015 Z M2.95531097,74.1532564 L1.43573192,74.1532564 L1.43573192,72.3347957 L2.95531097,72.3347957 C3.52262048,72.3347957 3.95823314,72.6802017 3.95823314,73.2491056 C3.95823314,73.8078504 3.52262048,74.1532564 2.95531097,74.1532564 L2.95531097,74.1532564 Z M13.4898978,78 C15.547502,78 16.5408282,76.8358014 16.5408282,75.1507772 L16.5408282,71.0658699 L15.0711109,71.0658699 L15.0711109,75.1099281 C15.0711109,76.0596691 14.5339039,76.7132542 13.4898978,76.7132542 C12.4458918,76.7132542 11.8985488,76.0596691 11.8985488,75.1099281 L11.8985488,71.0658699 L10.4389675,71.0658699 L10.4389675,75.1507772 C10.4389675,76.8358014 11.4322937,78 13.4898978,78 L13.4898978,78 Z M25.6419024,77.8801015 C26.9456525,77.8801015 27.6178987,77.0628024 27.6178987,76.0309622 C27.6178987,75.1830143 27.047508,74.4780938 26.3141486,74.3657152 C26.9558381,74.2329041 27.4854866,73.6505785 27.4854866,72.8026306 C27.4854866,71.8933853 26.823426,71.0658699 25.5298613,71.0658699 L21.9547339,71.0658699 L21.9547339,77.8801015 L25.6419024,77.8801015 Z M25.2028905,73.7535947 L23.4004362,73.7535947 L23.4004362,72.3347957 L25.2028905,72.3347957 C25.6889455,72.3347957 25.99273,72.6286898 25.99273,73.0441952 C25.99273,73.4799692 25.6889455,73.7535947 25.2028905,73.7535947 L25.2028905,73.7535947 Z M25.2622621,76.6211672 L23.4004362,76.6211672 L23.4004362,75.0724782 L25.2622621,75.0724782 C25.8187861,75.0724782 26.1223446,75.4188955 26.1223446,75.8468227 C26.1223446,76.3358824 25.7985488,76.6211672 25.2622621,76.6211672 L25.2622621,76.6211672 Z M36.8779303,77.8801015 L36.8779303,76.6030716 L34.006748,76.6030716 L34.006748,71.0658699 L32.5507938,71.0658699 L32.5507938,77.8801015 L36.8779303,77.8801015 Z M43.5605052,77.8801015 L43.5605052,71.0658699 L42.1247733,71.0658699 L42.1247733,77.8801015 L43.5605052,77.8801015 Z M51.3990543,78 C53.222617,78 54.1191171,77.0607661 54.1191171,75.8152602 C54.1191171,73.2732031 50.2173042,73.9980467 50.2173042,72.9260949 C50.2173042,72.5177323 50.5636793,72.2522966 51.1749293,72.2522966 C51.8676794,72.2522966 52.6011794,72.4871051 53.1513045,72.9975584 L53.9561171,71.9153975 C53.283742,71.2926446 52.3872419,70.9659545 51.3073668,70.9659545 C49.7079292,70.9659545 48.7299291,71.9051884 48.7299291,73.0383946 C48.7299291,75.6008698 52.6419294,74.7739356 52.6419294,75.9581871 C52.6419294,76.3563406 52.2649919,76.7136579 51.4601793,76.7136579 C50.5229293,76.7136579 49.7792417,76.2848772 49.3004292,75.784633 L48.5058041,76.9178392 C49.1476166,77.5610102 50.0848667,78 51.3990543,78 L51.3990543,78 Z M64.5021292,77.8797804 L64.5021292,71.0655489 L63.0526049,71.0655489 L63.0526049,73.7422035 L59.859597,73.7422035 L59.859597,71.0655489 L58.4202093,71.0655489 L58.4202093,77.8797804 L59.859597,77.8797804 L59.859597,75.0090172 L63.0526049,75.0090172 L63.0526049,77.8797804 L64.5021292,77.8797804 Z M72.0757364,77.8801015 L72.0757364,71.0658699 L70.6400045,71.0658699 L70.6400045,77.8801015 L72.0757364,77.8801015 Z M83.6114436,77.8801015 L83.6114436,71.0658699 L82.1719373,71.0658699 L82.1719373,75.3464742 L79.0394905,71.0658699 L77.5594347,71.0658699 L77.5594347,77.8801015 L78.998941,77.8801015 L78.998941,73.4360374 L82.2226241,77.8801015 L83.6114436,77.8801015 Z M92.1298156,78 C93.3468549,78 94.3103444,77.4997713 95,76.7239063 L95,74.1104665 L91.7748458,74.1104665 L91.7748458,75.3763514 L93.5598368,75.3763514 L93.5598368,76.1930514 C93.286003,76.4482701 92.7281933,76.7136976 92.1298156,76.7136976 C90.8924923,76.7136976 89.9999968,75.7642839 89.9999968,74.4779815 C89.9999968,73.1916791 90.8924923,72.2422654 92.1298156,72.2422654 C92.8397552,72.2422654 93.4178489,72.6506154 93.7322507,73.1304266 L94.918864,72.4770666 C94.4117643,71.6705754 93.5294108,70.955963 92.1298156,70.955963 C90.1419847,70.955963 88.5192656,72.3239354 88.5192656,74.4779815 C88.5192656,76.6218188 90.1419847,78 92.1298156,78 L92.1298156,78 Z" id="PUBLISHING-Copy"></path>
                </g>
            </g>
        </g>
    </g>
</svg>
