<svg role="img" xmlns="http://www.w3.org/2000/svg" viewBox="0 0 24 24" width="24" height="24"><g class="nc-icon-wrapper" fill="#6b7280"><path d="M15.76 0c-1.603.147-3.719.713-6.317 1.719a22.366 22.366 0 1-2.44 1.539 NaNL3.034 NaNc.064 NaN.136 NaN.24 NaN.106 NaN.169 NaN.169 NaNl.168 NaN.084 NaN.01 NaNc.01 NaN-.566 NaN-1.707 NaNl.093 NaN-.084 NaN-.177 NaNc0 NaN-.073 NaN-.24 NaNl.01 NaN.189 NaNa.673.673 0 1-.252-.053 NaNc-.566 NaN-.933 NaN-1.289 NaNl.094 NaNc.314 NaN.492 NaN.544 NaNl.022 NaNc-.052 NaN-.136 NaN-.24 NaNl.199 NaNa5.86 5.86 0 16.29 5.291 NaN NaNcNaN NaN NaN NaN NaN NaNlNaN NaNcNaN NaN NaN NaN NaN NaNlNaN NaNcNaN NaN NaN NaN NaN NaN NaN NaN NaN NaN NaN NaN NaN NaN NaN NaN NaN NaN NaN NaN NaN NaN NaN NaN NaN NaN NaN NaN NaN NaN NaN NaN NaN NaN NaN NaNlNaN NaN NaN NaN NaN NaN NaN NaNcNaN NaN NaN NaN NaN NaNlNaN NaNcNaN NaN NaN NaN NaN NaN NaN NaN NaN NaN NaN NaNlNaN NaN NaN NaNcNaN NaN NaN NaN NaN NaN NaN NaN NaN NaN NaN NaN NaN NaN NaN NaN NaN NaNlNaN NaN NaN NaN NaN NaN NaN NaNcNaN NaN NaN NaN NaN NaN NaN NaN NaN NaN NaN NaN NaN NaN NaN NaN NaN NaN NaN NaN NaN NaN NaN NaN NaN NaN NaN NaN NaN NaNlNaN NaNcNaN NaN NaN NaN NaN NaNlNaN NaNcNaN NaN NaN NaN NaN NaN NaN NaN NaN NaN NaN NaNzm2.525 1.037c1.55.063 2.347.335 2.389.817l-.063.158-2.326-.975zm-1.482 1.317c1.063-.016 1.617.267 1.672.863l.156-.012-.031-.398.168-.01c.408.22.627.492.648.816.021.22-.094.494-.355.819-.105.01-.168-.064-.178-.221l-.168.012-.041.47c-.702 1.048-1.205 1.582-1.52 1.614-.283.387-.462.587-.535.597-.22.262-.816.712-1.8 1.34-.325.032-1.531.493-3.616 1.404a.595.595 0 0-.334-.052 NaNl-.294 NaNc-.02 NaN.107 NaN.41 NaN.158 NaN.335 NaN.534 NaNl1.738 NaNc-.02 NaN.347 NaN 1.111 NaNl.252 NaN.02 NaNa50.387 50.387 0 11.394-.2 NaN NaN 7.23 7.23 0 0 1 NaN NaNzm3.619.39h.027c.139.012.288.263.446.744l.01.147c-.085.01-.24-.242-.471-.744l-.012-.147zm-9.836 2.483h.072l.022.23c-.074.01-.177.116-.303.336l-.012-.156c.147-.178.22-.316.22-.41zM5.6 5.354l.01.072c-.053 0-.136.043-.24.095l-.085.01-.01-.146.325-.031zM9.885 6.86l.031.315-.084.01-.031-.313.084-.012zm-.2.567c-.02.262-.084.397-.22.408l-.084.01c.094-.178.147-.303.137-.397l.168-.021zm-.345.816l.01.074-.147.25-.158.012-.01-.074c.157-.01.231-.093.22-.25l.085-.012zm-.358.735l-.04.386-.085.01-.03-.387.155-.01zm8.497.28l.345.212c.01.104-.042.167-.146.177-.147-.094-.262-.136-.346-.136l-.021-.23.168-.022zm-6.653.891l.012.147-.326.033-.01-.148.324-.032zm5.363.545c.23.105.347.21.358.293l.01.075c-.22.02-.42-.095-.608-.346l.24-.022zm2.6.252c.178.074.261.148.272.221l.052.617c-.073.168-.146.252-.23.252l-.094-1.09zm-4.195.065c.84-.014 1.482.184 1.922.605l.03.315c-.376 1.09-.795 1.719-1.245 1.918l-2.096 1.666c-1.56 1.026-2.4 1.538-2.525 1.548-2.483 1.373-4.032 2.075-4.63 2.127l-.095.01c.084-.293 1.185-2.555 3.322-6.808.943-.084 2.43-.525 4.452-1.32l.492-.042c.128-.01.253-.017.373-.02zm-3.055.49l.01.074-.334.031-.012-.074.336-.031zm-5.226 5.07c-.105.535-.221.808-.336.819l-.01-.075c-.021-.272.094-.513.346-.744zm7.101.336l.01.147c.01.063-.23.261-.701.607-1.394.681-2.21 1.152-2.452 1.393-1.508.523-2.252.849-2.242.974-1.34.535-2.22.923-2.638 1.164-.095.01-.241-.031-.43-.115-.021-.272.093-.494.365-.672.23-.02.463.011.672.106.251-.126.68-.274 1.299-.42l-.012-.156-.492.04c.063-.083.535-.303 1.436-.67l.251-.02.01.073c-.419.032-.66.167-.713.387.01.094.064.147.168.137.304-.21.461-.324.461-.356.608-.115 2.274-.995 5.008-2.619zm-7.584.723l.01.072c.01.105-.042.17-.147.18l-.01-.074c-.01-.095.042-.157.147-.178zm3.77.937c.089-.002.139.049.148.131-.199.021-.566.178-1.121.492l-.084.01-.01-.156a1.586 1.586 0 1.026-.47 NaN NaNcNaN NaN NaN NaN NaN NaNzM5.936 19.81l.01.082c-.064 0-.138.043-.243.095l-.156.01c-.01-.073.032-.136.137-.168l.252-.02zm-1.918.953l.177.072c-.063.471-.198.713-.44.734a1.076 1.076 0 0-.513-.105 NaNl-.429 NaNc-.01 NaN.043 NaN.158 NaN.105 NaN.167 NaN.178 NaN.282 NaN.44 NaN.46 NaNz"/></g></svg>