<svg role="img" xmlns="http://www.w3.org/2000/svg" viewBox="0 0 24 24" width="24" height="24"><g class="nc-icon-wrapper" fill="#6b7280"><path d="M18.144 13.067v-2.134L16.55 12zm1.276 1.194a.628.628 0 1-.006.083 NaNl-.094 NaN-.011 NaN-.01 NaNa.443.443 0 0 1-.017 NaNl-.014 NaNa.78.78 0 1-.021.043 NaNl-.083 NaNa.57.57 0 1-.08.1 NaNl-.206 NaNa.602.602 0 1-.036.03 NaNl-.095 NaN-.01 NaN-6.782 NaNa.637.637 0 1-.708 0 NaNl-7.49 NaN-.01 NaNa.599.599 0 1-.065-.052 NaNL4.75 NaNl-.032 NaN-.021 NaNa.588.588 0 1-.067-.11 NaNl.029 NaNa.644.644 0 1-.017-.047 NaNl.02 NaNc-.004 NaN-.008 NaN-.01 NaNl-.006 NaNa.628.628 0 1-.006-.083 NaNvNaNa.58.58 0 0 1 .083 NaNl.005 NaN.011 NaN.01 NaNa.574.574 0 1.12-.217 NaN NaNlNaN NaN NaN NaNa.62.62 0 1.065-.052 NaN NaNlNaN NaN NaN NaNa.638.638 0 1.708 0 NaN NaNlNaN NaN NaN NaN NaN NaN NaN NaNcNaN NaN NaN NaN NaN NaNa.545.545 0 1.08.1 NaN NaNlNaN NaNa.633.633 0 1.021.043 NaN NaNlNaN NaNcNaN NaN NaN NaN NaN NaNlNaN NaNcNaN NaN NaN NaN NaN NaNlNaN NaNa.619.619 0 1.006.083 NaN NaNzM12 0C5.373 0 0 5.372 0 12c0 6.627 5.373 12 12 12 6.628 0 12-5.372 12-12 0-6.627-5.372-12-12-12m0 10.492L9.745 12 12 13.51 14.255 12zm.638 4.124v2.975l4.996-3.33-2.232-1.493zm-6.272-.356l4.996 3.33v-2.974l-2.764-1.849zm11.268-4.52l-4.996-3.33v2.974l2.764 1.85zm-6.272-.356V6.41L6.366 9.74l2.232 1.493zm-5.506 1.549v2.134L7.45 12z"/></g></svg>