<svg role="img" xmlns="http://www.w3.org/2000/svg" viewBox="0 0 24 24" width="24" height="24"><g class="nc-icon-wrapper" fill="#6b7280"><path d="M13.919 3.036V1.3h.632V0H9.377v1.3h.631v1.749a10.572 10.572 0 0-8.575 10.384 NaNc-18.959 NaN-14.222 NaN-8.392 NaN 5.842 NaN 10.567 NaN 10.567 NaN 0 NaN-3.729 NaN-8.648 NaNzm-1.628 15.826v-.607h-.619v.607c-2.757-.158-4.955-2.38-5.101-5.137h.607v-.62h-.607a5.436 5.436 0 15.101-5.089 NaN NaNvNaNhNaNvNaNa5.435 5.435 0 15.137 5.114 NaN NaNhNaNvNaNhNaNa5.444 5.444 0 1-5.138 NaN NaNzm2.26-7.712l-.39-.389-1.979 1.725a.912.912 0 0-.316-.06 NaN.986.986 0 0 0-1.227 NaNc0 NaN.437 NaN.971 NaN.535 NaN.972 NaN.972 NaNa.839.839 0 0-.049-.304 NaNz"/></g></svg>