<svg role="img" xmlns="http://www.w3.org/2000/svg" viewBox="0 0 24 24" width="24" height="24"><g class="nc-icon-wrapper" fill="#6b7280"><path d="M4.844.904a1.007 1.007 0 0-.955.692 NaNL-.288 NaNc0 NaN-.005 NaN-.007 NaNL.07 NaNa1.437 1.437 0 .522 1.607 NaN NaNlNaN NaNa.566.566 0 .67-.004 NaN NaNlNaN NaNa1.436 1.436 0 .522-1.61 NaN NaNlNaN NaNa.547.547 0 0-.031 NaN NaNlNaN NaNa1.004 1.004 0 0-.957 NaN NaNlNaN NaN NaN NaNhNaNlNaN NaNa.987.987 0 0-.943 NaN NaNhNaNzm-.006 1.42l2.174 6.678H2.674l2.164-6.678zm14.328 0l2.168 6.678h-4.342l2.174-6.678zm-10.594 7.81h6.862l-2.15 6.618L12 20.693 8.572 10.135zm-5.515.005h4.322l3.086 9.5-7.408-9.5zm13.568 0h4.326l-6.703 8.588-.709.914 2.959-9.108.127-.394zM2.1 10.762l6.978 8.947-7.818-5.682A.305.305 0 1-.112.919 NaNl1.181 NaNzm19.8 0l.952 2.922a.305.305 0 1-.11.341 NaNvNaNl-8.271 NaN.025 NaNL21.9 NaNz"/></g></svg>