<svg xmlns="http://www.w3.org/2000/svg" viewBox="0 0 545 700"><rect width="545" height="700" style="fill:#1a202e"/><line x1="47.5" y1="50" x2="77.5" y2="50" style="fill:none;stroke:#f56565;stroke-linecap:square;stroke-width:5px"/><line x1="82.5" y1="50" x2="157.5" y2="50" style="fill:none;stroke:#7f9cf5;stroke-linecap:square;stroke-width:5px"/><line x1="167.5" y1="50" x2="167.5" y2="50" style="fill:none;stroke:#e2e8f0;stroke-linecap:square;stroke-width:5px"/><line x1="177.5" y1="50" x2="277.5" y2="50" style="fill:none;stroke:#7f9cf5;stroke-linecap:square;stroke-width:5px"/><line x1="62.5" y1="60" x2="122.5" y2="60" style="fill:none;stroke:#7f9cf5;stroke-linecap:square;stroke-width:5px"/><line x1="132.5" y1="60" x2="177.5" y2="60" style="fill:none;stroke:#f6ad55;stroke-linecap:square;stroke-width:5px"/><line x1="182.5" y1="60" x2="182.5" y2="60" style="fill:none;stroke:#e2e8f0;stroke-linecap:square;stroke-width:5px"/><line x1="192.5" y1="60" x2="207.5" y2="60" style="fill:none;stroke:#f6ad55;stroke-linecap:square;stroke-width:5px"/><line x1="212.5" y1="60" x2="212.5" y2="60" style="fill:none;stroke:#e2e8f0;stroke-linecap:square;stroke-width:5px"/><line x1="222.5" y1="60" x2="222.5" y2="60" style="fill:none;stroke:#e2e8f0;stroke-linecap:square;stroke-width:5px"/><line x1="227.5" y1="60" x2="247.5" y2="60" style="fill:none;stroke:#f6ad55;stroke-linecap:square;stroke-width:5px"/><line x1="252.5" y1="60" x2="252.5" y2="60" style="fill:none;stroke:#e2e8f0;stroke-linecap:square;stroke-width:5px"/><line x1="262.5" y1="60" x2="282.5" y2="60" style="fill:none;stroke:#f6ad55;stroke-linecap:square;stroke-width:5px"/><line x1="287.5" y1="60" x2="287.5" y2="60" style="fill:none;stroke:#e2e8f0;stroke-linecap:square;stroke-width:5px"/><line x1="297.5" y1="60" x2="327.5" y2="60" style="fill:none;stroke:#f6ad55;stroke-linecap:square;stroke-width:5px"/><line x1="332.5" y1="60" x2="332.5" y2="60" style="fill:none;stroke:#e2e8f0;stroke-linecap:square;stroke-width:5px"/><line x1="342.5" y1="60" x2="377.5" y2="60" style="fill:none;stroke:#f6ad55;stroke-linecap:square;stroke-width:5px"/><line x1="382.5" y1="60" x2="382.5" y2="60" style="fill:none;stroke:#e2e8f0;stroke-linecap:square;stroke-width:5px"/><line x1="62.5" y1="80" x2="72.5" y2="80" style="fill:none;stroke:#f56565;stroke-linecap:square;stroke-width:5px"/><line x1="82.5" y1="80" x2="102.5" y2="80" style="fill:none;stroke:#7f9cf5;stroke-linecap:square;stroke-width:5px"/><line x1="72.5" y1="90" x2="102.5" y2="90" style="fill:none;stroke:#63b3ed;stroke-linecap:square;stroke-width:5px"/><line x1="112.5" y1="90" x2="112.5" y2="90" style="fill:none;stroke:#63b3ed;stroke-linecap:square;stroke-width:5px"/><line x1="122.5" y1="90" x2="142.5" y2="90" style="fill:none;stroke:#7f9cf5;stroke-linecap:square;stroke-width:5px"/><line x1="147.5" y1="90" x2="147.5" y2="90" style="fill:none;stroke:#e2e8f0;stroke-linecap:square;stroke-width:5px"/><line x1="152.5" y1="90" x2="162.5" y2="90" style="fill:none;stroke:#7f9cf5;stroke-linecap:square;stroke-width:5px"/><line x1="62.5" y1="100" x2="72.5" y2="100" style="fill:none;stroke:#f56565;stroke-linecap:square;stroke-width:5px"/><line x1="62.5" y1="120" x2="72.5" y2="120" style="fill:none;stroke:#f56565;stroke-linecap:square;stroke-width:5px"/><line x1="82.5" y1="120" x2="97.5" y2="120" style="fill:none;stroke:#7f9cf5;stroke-linecap:square;stroke-width:5px"/><line x1="62.5" y1="130" x2="72.5" y2="130" style="fill:none;stroke:#f56565;stroke-linecap:square;stroke-width:5px"/><line x1="62.5" y1="150" x2="72.5" y2="150" style="fill:none;stroke:#f56565;stroke-linecap:square;stroke-width:5px"/><line x1="82.5" y1="150" x2="92.5" y2="150" style="fill:none;stroke:#7f9cf5;stroke-linecap:square;stroke-width:5px"/><line x1="72.5" y1="160" x2="97.5" y2="160" style="fill:none;stroke:#63b3ed;stroke-linecap:square;stroke-width:5px"/><line x1="107.5" y1="160" x2="107.5" y2="160" style="fill:none;stroke:#63b3ed;stroke-linecap:square;stroke-width:5px"/><line x1="117.5" y1="160" x2="137.5" y2="160" style="fill:none;stroke:#7f9cf5;stroke-linecap:square;stroke-width:5px"/><line x1="142.5" y1="160" x2="142.5" y2="160" style="fill:none;stroke:#e2e8f0;stroke-linecap:square;stroke-width:5px"/><line x1="147.5" y1="160" x2="157.5" y2="160" style="fill:none;stroke:#7f9cf5;stroke-linecap:square;stroke-width:5px"/><line x1="62.5" y1="170" x2="72.5" y2="170" style="fill:none;stroke:#f56565;stroke-linecap:square;stroke-width:5px"/><line x1="62.5" y1="190" x2="72.5" y2="190" style="fill:none;stroke:#f56565;stroke-linecap:square;stroke-width:5px"/><line x1="82.5" y1="190" x2="97.5" y2="190" style="fill:none;stroke:#7f9cf5;stroke-linecap:square;stroke-width:5px"/><line x1="62.5" y1="200" x2="72.5" y2="200" style="fill:none;stroke:#f56565;stroke-linecap:square;stroke-width:5px"/><line x1="62.5" y1="220" x2="72.5" y2="220" style="fill:none;stroke:#f56565;stroke-linecap:square;stroke-width:5px"/><line x1="82.5" y1="220" x2="107.5" y2="220" style="fill:none;stroke:#7f9cf5;stroke-linecap:square;stroke-width:5px"/><line x1="72.5" y1="230" x2="97.5" y2="230" style="fill:none;stroke:#63b3ed;stroke-linecap:square;stroke-width:5px"/><line x1="107.5" y1="230" x2="107.5" y2="230" style="fill:none;stroke:#63b3ed;stroke-linecap:square;stroke-width:5px"/><line x1="117.5" y1="230" x2="137.5" y2="230" style="fill:none;stroke:#7f9cf5;stroke-linecap:square;stroke-width:5px"/><line x1="142.5" y1="230" x2="142.5" y2="230" style="fill:none;stroke:#e2e8f0;stroke-linecap:square;stroke-width:5px"/><line x1="147.5" y1="230" x2="157.5" y2="230" style="fill:none;stroke:#7f9cf5;stroke-linecap:square;stroke-width:5px"/><line x1="162.5" y1="230" x2="162.5" y2="230" style="fill:none;stroke:#e2e8f0;stroke-linecap:square;stroke-width:5px"/><line x1="167.5" y1="230" x2="222.5" y2="230" style="fill:none;stroke:#7f9cf5;stroke-linecap:square;stroke-width:5px"/><line x1="227.5" y1="230" x2="227.5" y2="230" style="fill:none;stroke:#e2e8f0;stroke-linecap:square;stroke-width:5px"/><line x1="72.5" y1="250" x2="117.5" y2="250" style="fill:none;stroke:#7f9cf5;stroke-linecap:square;stroke-width:5px"/><line x1="127.5" y1="250" x2="132.5" y2="250" style="fill:none;stroke:#f56565;stroke-linecap:square;stroke-width:5px"/><line x1="142.5" y1="250" x2="142.5" y2="250" style="fill:none;stroke:#e2e8f0;stroke-linecap:square;stroke-width:5px"/><line x1="147.5" y1="250" x2="172.5" y2="250" style="fill:none;stroke:#e2e8f0;stroke-linecap:square;stroke-width:5px"/><line x1="177.5" y1="250" x2="177.5" y2="250" style="fill:none;stroke:#e2e8f0;stroke-linecap:square;stroke-width:5px"/><line x1="82.5" y1="260" x2="87.5" y2="260" style="fill:none;stroke:#f56565;stroke-linecap:square;stroke-width:5px"/><line x1="97.5" y1="260" x2="122.5" y2="260" style="fill:none;stroke:#63b3ed;stroke-linecap:square;stroke-width:5px"/><line x1="127.5" y1="260" x2="127.5" y2="260" style="fill:none;stroke:#e2e8f0;stroke-linecap:square;stroke-width:5px"/><line x1="132.5" y1="260" x2="147.5" y2="260" style="fill:none;stroke:#7f9cf5;stroke-linecap:square;stroke-width:5px"/><line x1="92.5" y1="270" x2="117.5" y2="270" style="fill:none;stroke:#e2e8f0;stroke-linecap:square;stroke-width:5px"/><line x1="122.5" y1="270" x2="122.5" y2="270" style="fill:none;stroke:#e2e8f0;stroke-linecap:square;stroke-width:5px"/><line x1="127.5" y1="270" x2="142.5" y2="270" style="fill:none;stroke:#7f9cf5;stroke-linecap:square;stroke-width:5px"/><line x1="152.5" y1="270" x2="152.5" y2="270" style="fill:none;stroke:#e2e8f0;stroke-linecap:square;stroke-width:5px"/><line x1="162.5" y1="270" x2="212.5" y2="270" style="fill:none;stroke:#7f9cf5;stroke-linecap:square;stroke-width:5px"/><line x1="222.5" y1="270" x2="247.5" y2="270" style="fill:none;stroke:#63b3ed;stroke-linecap:square;stroke-width:5px"/><line x1="252.5" y1="270" x2="252.5" y2="270" style="fill:none;stroke:#e2e8f0;stroke-linecap:square;stroke-width:5px"/><line x1="262.5" y1="270" x2="287.5" y2="270" style="fill:none;stroke:#f6ad55;stroke-linecap:square;stroke-width:5px"/><line x1="292.5" y1="270" x2="292.5" y2="270" style="fill:none;stroke:#e2e8f0;stroke-linecap:square;stroke-width:5px"/><line x1="302.5" y1="270" x2="327.5" y2="270" style="fill:none;stroke:#f6ad55;stroke-linecap:square;stroke-width:5px"/><line x1="337.5" y1="270" x2="347.5" y2="270" style="fill:none;stroke:#f6ad55;stroke-linecap:square;stroke-width:5px"/><line x1="357.5" y1="270" x2="412.5" y2="270" style="fill:none;stroke:#f6ad55;stroke-linecap:square;stroke-width:5px"/><line x1="422.5" y1="270" x2="462.5" y2="270" style="fill:none;stroke:#f6ad55;stroke-linecap:square;stroke-width:5px"/><line x1="472.5" y1="270" x2="472.5" y2="270" style="fill:none;stroke:#e2e8f0;stroke-linecap:square;stroke-width:5px"/><line x1="92.5" y1="280" x2="117.5" y2="280" style="fill:none;stroke:#e2e8f0;stroke-linecap:square;stroke-width:5px"/><line x1="122.5" y1="280" x2="122.5" y2="280" style="fill:none;stroke:#e2e8f0;stroke-linecap:square;stroke-width:5px"/><line x1="127.5" y1="280" x2="142.5" y2="280" style="fill:none;stroke:#7f9cf5;stroke-linecap:square;stroke-width:5px"/><line x1="152.5" y1="280" x2="152.5" y2="280" style="fill:none;stroke:#e2e8f0;stroke-linecap:square;stroke-width:5px"/><line x1="162.5" y1="280" x2="187.5" y2="280" style="fill:none;stroke:#7f9cf5;stroke-linecap:square;stroke-width:5px"/><line x1="197.5" y1="280" x2="217.5" y2="280" style="fill:none;stroke:#f6ad55;stroke-linecap:square;stroke-width:5px"/><line x1="222.5" y1="280" x2="222.5" y2="280" style="fill:none;stroke:#e2e8f0;stroke-linecap:square;stroke-width:5px"/><line x1="232.5" y1="280" x2="257.5" y2="280" style="fill:none;stroke:#f6ad55;stroke-linecap:square;stroke-width:5px"/><line x1="262.5" y1="280" x2="262.5" y2="280" style="fill:none;stroke:#e2e8f0;stroke-linecap:square;stroke-width:5px"/><line x1="272.5" y1="280" x2="307.5" y2="280" style="fill:none;stroke:#f6ad55;stroke-linecap:square;stroke-width:5px"/><line x1="312.5" y1="280" x2="312.5" y2="280" style="fill:none;stroke:#e2e8f0;stroke-linecap:square;stroke-width:5px"/><line x1="322.5" y1="280" x2="357.5" y2="280" style="fill:none;stroke:#f6ad55;stroke-linecap:square;stroke-width:5px"/><line x1="362.5" y1="280" x2="362.5" y2="280" style="fill:none;stroke:#e2e8f0;stroke-linecap:square;stroke-width:5px"/><line x1="372.5" y1="280" x2="397.5" y2="280" style="fill:none;stroke:#63b3ed;stroke-linecap:square;stroke-width:5px"/><line x1="407.5" y1="280" x2="407.5" y2="280" style="fill:none;stroke:#e2e8f0;stroke-linecap:square;stroke-width:5px"/><line x1="82.5" y1="290" x2="97.5" y2="290" style="fill:none;stroke:#f56565;stroke-linecap:square;stroke-width:5px"/><line x1="92.5" y1="300" x2="117.5" y2="300" style="fill:none;stroke:#e2e8f0;stroke-linecap:square;stroke-width:5px"/><line x1="122.5" y1="300" x2="122.5" y2="300" style="fill:none;stroke:#e2e8f0;stroke-linecap:square;stroke-width:5px"/><line x1="127.5" y1="300" x2="142.5" y2="300" style="fill:none;stroke:#7f9cf5;stroke-linecap:square;stroke-width:5px"/><line x1="152.5" y1="300" x2="152.5" y2="300" style="fill:none;stroke:#e2e8f0;stroke-linecap:square;stroke-width:5px"/><line x1="162.5" y1="300" x2="187.5" y2="300" style="fill:none;stroke:#7f9cf5;stroke-linecap:square;stroke-width:5px"/><line x1="197.5" y1="300" x2="212.5" y2="300" style="fill:none;stroke:#f6ad55;stroke-linecap:square;stroke-width:5px"/><line x1="222.5" y1="300" x2="222.5" y2="300" style="fill:none;stroke:#e2e8f0;stroke-linecap:square;stroke-width:5px"/><line x1="92.5" y1="310" x2="117.5" y2="310" style="fill:none;stroke:#e2e8f0;stroke-linecap:square;stroke-width:5px"/><line x1="122.5" y1="310" x2="122.5" y2="310" style="fill:none;stroke:#e2e8f0;stroke-linecap:square;stroke-width:5px"/><line x1="127.5" y1="310" x2="142.5" y2="310" style="fill:none;stroke:#7f9cf5;stroke-linecap:square;stroke-width:5px"/><line x1="152.5" y1="310" x2="152.5" y2="310" style="fill:none;stroke:#e2e8f0;stroke-linecap:square;stroke-width:5px"/><line x1="162.5" y1="310" x2="187.5" y2="310" style="fill:none;stroke:#7f9cf5;stroke-linecap:square;stroke-width:5px"/><line x1="197.5" y1="310" x2="212.5" y2="310" style="fill:none;stroke:#f6ad55;stroke-linecap:square;stroke-width:5px"/><line x1="217.5" y1="310" x2="217.5" y2="310" style="fill:none;stroke:#e2e8f0;stroke-linecap:square;stroke-width:5px"/><line x1="227.5" y1="310" x2="252.5" y2="310" style="fill:none;stroke:#63b3ed;stroke-linecap:square;stroke-width:5px"/><line x1="257.5" y1="310" x2="257.5" y2="310" style="fill:none;stroke:#e2e8f0;stroke-linecap:square;stroke-width:5px"/><line x1="262.5" y1="310" x2="287.5" y2="310" style="fill:none;stroke:#7f9cf5;stroke-linecap:square;stroke-width:5px"/><line x1="292.5" y1="310" x2="292.5" y2="310" style="fill:none;stroke:#e2e8f0;stroke-linecap:square;stroke-width:5px"/><line x1="302.5" y1="310" x2="327.5" y2="310" style="fill:none;stroke:#f6ad55;stroke-linecap:square;stroke-width:5px"/><line x1="332.5" y1="310" x2="332.5" y2="310" style="fill:none;stroke:#e2e8f0;stroke-linecap:square;stroke-width:5px"/><line x1="342.5" y1="310" x2="442.5" y2="310" style="fill:none;stroke:#f6ad55;stroke-linecap:square;stroke-width:5px"/><line x1="452.5" y1="310" x2="452.5" y2="310" style="fill:none;stroke:#e2e8f0;stroke-linecap:square;stroke-width:5px"/><line x1="82.5" y1="320" x2="92.5" y2="320" style="fill:none;stroke:#f56565;stroke-linecap:square;stroke-width:5px"/><line x1="72.5" y1="330" x2="82.5" y2="330" style="fill:none;stroke:#f56565;stroke-linecap:square;stroke-width:5px"/><line x1="62.5" y1="340" x2="72.5" y2="340" style="fill:none;stroke:#f56565;stroke-linecap:square;stroke-width:5px"/><line x1="62.5" y1="360" x2="72.5" y2="360" style="fill:none;stroke:#f56565;stroke-linecap:square;stroke-width:5px"/><line x1="82.5" y1="360" x2="107.5" y2="360" style="fill:none;stroke:#7f9cf5;stroke-linecap:square;stroke-width:5px"/><line x1="72.5" y1="370" x2="117.5" y2="370" style="fill:none;stroke:#7f9cf5;stroke-linecap:square;stroke-width:5px"/><line x1="127.5" y1="370" x2="132.5" y2="370" style="fill:none;stroke:#f56565;stroke-linecap:square;stroke-width:5px"/><line x1="142.5" y1="370" x2="142.5" y2="370" style="fill:none;stroke:#e2e8f0;stroke-linecap:square;stroke-width:5px"/><line x1="147.5" y1="370" x2="172.5" y2="370" style="fill:none;stroke:#e2e8f0;stroke-linecap:square;stroke-width:5px"/><line x1="177.5" y1="370" x2="177.5" y2="370" style="fill:none;stroke:#e2e8f0;stroke-linecap:square;stroke-width:5px"/><line x1="82.5" y1="380" x2="87.5" y2="380" style="fill:none;stroke:#f56565;stroke-linecap:square;stroke-width:5px"/><line x1="97.5" y1="380" x2="122.5" y2="380" style="fill:none;stroke:#63b3ed;stroke-linecap:square;stroke-width:5px"/><line x1="127.5" y1="380" x2="127.5" y2="380" style="fill:none;stroke:#e2e8f0;stroke-linecap:square;stroke-width:5px"/><line x1="132.5" y1="380" x2="157.5" y2="380" style="fill:none;stroke:#7f9cf5;stroke-linecap:square;stroke-width:5px"/><line x1="162.5" y1="380" x2="162.5" y2="380" style="fill:none;stroke:#e2e8f0;stroke-linecap:square;stroke-width:5px"/><line x1="167.5" y1="380" x2="222.5" y2="380" style="fill:none;stroke:#7f9cf5;stroke-linecap:square;stroke-width:5px"/><line x1="227.5" y1="380" x2="227.5" y2="380" style="fill:none;stroke:#e2e8f0;stroke-linecap:square;stroke-width:5px"/><line x1="92.5" y1="390" x2="117.5" y2="390" style="fill:none;stroke:#e2e8f0;stroke-linecap:square;stroke-width:5px"/><line x1="122.5" y1="390" x2="122.5" y2="390" style="fill:none;stroke:#e2e8f0;stroke-linecap:square;stroke-width:5px"/><line x1="127.5" y1="390" x2="142.5" y2="390" style="fill:none;stroke:#7f9cf5;stroke-linecap:square;stroke-width:5px"/><line x1="152.5" y1="390" x2="152.5" y2="390" style="fill:none;stroke:#e2e8f0;stroke-linecap:square;stroke-width:5px"/><line x1="162.5" y1="390" x2="212.5" y2="390" style="fill:none;stroke:#7f9cf5;stroke-linecap:square;stroke-width:5px"/><line x1="222.5" y1="390" x2="247.5" y2="390" style="fill:none;stroke:#63b3ed;stroke-linecap:square;stroke-width:5px"/><line x1="252.5" y1="390" x2="252.5" y2="390" style="fill:none;stroke:#e2e8f0;stroke-linecap:square;stroke-width:5px"/><line x1="262.5" y1="390" x2="287.5" y2="390" style="fill:none;stroke:#f6ad55;stroke-linecap:square;stroke-width:5px"/><line x1="292.5" y1="390" x2="292.5" y2="390" style="fill:none;stroke:#e2e8f0;stroke-linecap:square;stroke-width:5px"/><line x1="302.5" y1="390" x2="327.5" y2="390" style="fill:none;stroke:#f6ad55;stroke-linecap:square;stroke-width:5px"/><line x1="337.5" y1="390" x2="347.5" y2="390" style="fill:none;stroke:#f6ad55;stroke-linecap:square;stroke-width:5px"/><line x1="357.5" y1="390" x2="412.5" y2="390" style="fill:none;stroke:#f6ad55;stroke-linecap:square;stroke-width:5px"/><line x1="422.5" y1="390" x2="462.5" y2="390" style="fill:none;stroke:#f6ad55;stroke-linecap:square;stroke-width:5px"/><line x1="472.5" y1="390" x2="472.5" y2="390" style="fill:none;stroke:#e2e8f0;stroke-linecap:square;stroke-width:5px"/><line x1="92.5" y1="400" x2="117.5" y2="400" style="fill:none;stroke:#e2e8f0;stroke-linecap:square;stroke-width:5px"/><line x1="122.5" y1="400" x2="122.5" y2="400" style="fill:none;stroke:#e2e8f0;stroke-linecap:square;stroke-width:5px"/><line x1="127.5" y1="400" x2="142.5" y2="400" style="fill:none;stroke:#7f9cf5;stroke-linecap:square;stroke-width:5px"/><line x1="152.5" y1="400" x2="152.5" y2="400" style="fill:none;stroke:#e2e8f0;stroke-linecap:square;stroke-width:5px"/><line x1="162.5" y1="400" x2="187.5" y2="400" style="fill:none;stroke:#7f9cf5;stroke-linecap:square;stroke-width:5px"/><line x1="197.5" y1="400" x2="217.5" y2="400" style="fill:none;stroke:#f6ad55;stroke-linecap:square;stroke-width:5px"/><line x1="222.5" y1="400" x2="222.5" y2="400" style="fill:none;stroke:#e2e8f0;stroke-linecap:square;stroke-width:5px"/><line x1="232.5" y1="400" x2="257.5" y2="400" style="fill:none;stroke:#f6ad55;stroke-linecap:square;stroke-width:5px"/><line x1="262.5" y1="400" x2="262.5" y2="400" style="fill:none;stroke:#e2e8f0;stroke-linecap:square;stroke-width:5px"/><line x1="272.5" y1="400" x2="282.5" y2="400" style="fill:none;stroke:#f6ad55;stroke-linecap:square;stroke-width:5px"/><line x1="287.5" y1="400" x2="287.5" y2="400" style="fill:none;stroke:#e2e8f0;stroke-linecap:square;stroke-width:5px"/><line x1="297.5" y1="400" x2="332.5" y2="400" style="fill:none;stroke:#f6ad55;stroke-linecap:square;stroke-width:5px"/><line x1="337.5" y1="400" x2="337.5" y2="400" style="fill:none;stroke:#e2e8f0;stroke-linecap:square;stroke-width:5px"/><line x1="347.5" y1="400" x2="372.5" y2="400" style="fill:none;stroke:#63b3ed;stroke-linecap:square;stroke-width:5px"/><line x1="382.5" y1="400" x2="382.5" y2="400" style="fill:none;stroke:#e2e8f0;stroke-linecap:square;stroke-width:5px"/><line x1="82.5" y1="410" x2="97.5" y2="410" style="fill:none;stroke:#f56565;stroke-linecap:square;stroke-width:5px"/><line x1="92.5" y1="420" x2="117.5" y2="420" style="fill:none;stroke:#e2e8f0;stroke-linecap:square;stroke-width:5px"/><line x1="122.5" y1="420" x2="122.5" y2="420" style="fill:none;stroke:#e2e8f0;stroke-linecap:square;stroke-width:5px"/><line x1="127.5" y1="420" x2="142.5" y2="420" style="fill:none;stroke:#7f9cf5;stroke-linecap:square;stroke-width:5px"/><line x1="152.5" y1="420" x2="152.5" y2="420" style="fill:none;stroke:#e2e8f0;stroke-linecap:square;stroke-width:5px"/><line x1="162.5" y1="420" x2="187.5" y2="420" style="fill:none;stroke:#7f9cf5;stroke-linecap:square;stroke-width:5px"/><line x1="197.5" y1="420" x2="217.5" y2="420" style="fill:none;stroke:#f6ad55;stroke-linecap:square;stroke-width:5px"/><line x1="227.5" y1="420" x2="227.5" y2="420" style="fill:none;stroke:#e2e8f0;stroke-linecap:square;stroke-width:5px"/><line x1="92.5" y1="430" x2="117.5" y2="430" style="fill:none;stroke:#e2e8f0;stroke-linecap:square;stroke-width:5px"/><line x1="122.5" y1="430" x2="122.5" y2="430" style="fill:none;stroke:#e2e8f0;stroke-linecap:square;stroke-width:5px"/><line x1="127.5" y1="430" x2="142.5" y2="430" style="fill:none;stroke:#7f9cf5;stroke-linecap:square;stroke-width:5px"/><line x1="152.5" y1="430" x2="152.5" y2="430" style="fill:none;stroke:#e2e8f0;stroke-linecap:square;stroke-width:5px"/><line x1="162.5" y1="430" x2="187.5" y2="430" style="fill:none;stroke:#7f9cf5;stroke-linecap:square;stroke-width:5px"/><line x1="197.5" y1="430" x2="212.5" y2="430" style="fill:none;stroke:#f6ad55;stroke-linecap:square;stroke-width:5px"/><line x1="217.5" y1="430" x2="217.5" y2="430" style="fill:none;stroke:#e2e8f0;stroke-linecap:square;stroke-width:5px"/><line x1="227.5" y1="430" x2="252.5" y2="430" style="fill:none;stroke:#63b3ed;stroke-linecap:square;stroke-width:5px"/><line x1="257.5" y1="430" x2="257.5" y2="430" style="fill:none;stroke:#e2e8f0;stroke-linecap:square;stroke-width:5px"/><line x1="262.5" y1="430" x2="287.5" y2="430" style="fill:none;stroke:#7f9cf5;stroke-linecap:square;stroke-width:5px"/><line x1="292.5" y1="430" x2="292.5" y2="430" style="fill:none;stroke:#e2e8f0;stroke-linecap:square;stroke-width:5px"/><line x1="302.5" y1="430" x2="327.5" y2="430" style="fill:none;stroke:#f6ad55;stroke-linecap:square;stroke-width:5px"/><line x1="332.5" y1="430" x2="332.5" y2="430" style="fill:none;stroke:#e2e8f0;stroke-linecap:square;stroke-width:5px"/><line x1="342.5" y1="430" x2="442.5" y2="430" style="fill:none;stroke:#f6ad55;stroke-linecap:square;stroke-width:5px"/><line x1="452.5" y1="430" x2="452.5" y2="430" style="fill:none;stroke:#e2e8f0;stroke-linecap:square;stroke-width:5px"/><line x1="82.5" y1="440" x2="92.5" y2="440" style="fill:none;stroke:#f56565;stroke-linecap:square;stroke-width:5px"/><line x1="72.5" y1="450" x2="82.5" y2="450" style="fill:none;stroke:#f56565;stroke-linecap:square;stroke-width:5px"/><line x1="62.5" y1="460" x2="72.5" y2="460" style="fill:none;stroke:#f56565;stroke-linecap:square;stroke-width:5px"/><line x1="62.5" y1="480" x2="72.5" y2="480" style="fill:none;stroke:#f56565;stroke-linecap:square;stroke-width:5px"/><line x1="82.5" y1="480" x2="112.5" y2="480" style="fill:none;stroke:#7f9cf5;stroke-linecap:square;stroke-width:5px"/><line x1="72.5" y1="490" x2="97.5" y2="490" style="fill:none;stroke:#63b3ed;stroke-linecap:square;stroke-width:5px"/><line x1="102.5" y1="490" x2="102.5" y2="490" style="fill:none;stroke:#e2e8f0;stroke-linecap:square;stroke-width:5px"/><line x1="107.5" y1="490" x2="137.5" y2="490" style="fill:none;stroke:#7f9cf5;stroke-linecap:square;stroke-width:5px"/><line x1="72.5" y1="500" x2="117.5" y2="500" style="fill:none;stroke:#7f9cf5;stroke-linecap:square;stroke-width:5px"/><line x1="127.5" y1="500" x2="132.5" y2="500" style="fill:none;stroke:#f56565;stroke-linecap:square;stroke-width:5px"/><line x1="142.5" y1="500" x2="142.5" y2="500" style="fill:none;stroke:#e2e8f0;stroke-linecap:square;stroke-width:5px"/><line x1="147.5" y1="500" x2="172.5" y2="500" style="fill:none;stroke:#e2e8f0;stroke-linecap:square;stroke-width:5px"/><line x1="177.5" y1="500" x2="177.5" y2="500" style="fill:none;stroke:#e2e8f0;stroke-linecap:square;stroke-width:5px"/><line x1="82.5" y1="510" x2="107.5" y2="510" style="fill:none;stroke:#e2e8f0;stroke-linecap:square;stroke-width:5px"/><line x1="112.5" y1="510" x2="112.5" y2="510" style="fill:none;stroke:#e2e8f0;stroke-linecap:square;stroke-width:5px"/><line x1="117.5" y1="510" x2="132.5" y2="510" style="fill:none;stroke:#7f9cf5;stroke-linecap:square;stroke-width:5px"/><line x1="142.5" y1="510" x2="142.5" y2="510" style="fill:none;stroke:#e2e8f0;stroke-linecap:square;stroke-width:5px"/><line x1="152.5" y1="510" x2="202.5" y2="510" style="fill:none;stroke:#7f9cf5;stroke-linecap:square;stroke-width:5px"/><line x1="212.5" y1="510" x2="257.5" y2="510" style="fill:none;stroke:#7f9cf5;stroke-linecap:square;stroke-width:5px"/><line x1="262.5" y1="510" x2="262.5" y2="510" style="fill:none;stroke:#e2e8f0;stroke-linecap:square;stroke-width:5px"/><line x1="272.5" y1="510" x2="297.5" y2="510" style="fill:none;stroke:#f6ad55;stroke-linecap:square;stroke-width:5px"/><line x1="302.5" y1="510" x2="302.5" y2="510" style="fill:none;stroke:#e2e8f0;stroke-linecap:square;stroke-width:5px"/><line x1="312.5" y1="510" x2="337.5" y2="510" style="fill:none;stroke:#f6ad55;stroke-linecap:square;stroke-width:5px"/><line x1="347.5" y1="510" x2="357.5" y2="510" style="fill:none;stroke:#f6ad55;stroke-linecap:square;stroke-width:5px"/><line x1="367.5" y1="510" x2="422.5" y2="510" style="fill:none;stroke:#f6ad55;stroke-linecap:square;stroke-width:5px"/><line x1="432.5" y1="510" x2="482.5" y2="510" style="fill:none;stroke:#f6ad55;stroke-linecap:square;stroke-width:5px"/><line x1="492.5" y1="510" x2="492.5" y2="510" style="fill:none;stroke:#e2e8f0;stroke-linecap:square;stroke-width:5px"/><line x1="82.5" y1="520" x2="107.5" y2="520" style="fill:none;stroke:#e2e8f0;stroke-linecap:square;stroke-width:5px"/><line x1="112.5" y1="520" x2="112.5" y2="520" style="fill:none;stroke:#e2e8f0;stroke-linecap:square;stroke-width:5px"/><line x1="117.5" y1="520" x2="132.5" y2="520" style="fill:none;stroke:#7f9cf5;stroke-linecap:square;stroke-width:5px"/><line x1="142.5" y1="520" x2="142.5" y2="520" style="fill:none;stroke:#e2e8f0;stroke-linecap:square;stroke-width:5px"/><line x1="152.5" y1="520" x2="167.5" y2="520" style="fill:none;stroke:#7f9cf5;stroke-linecap:square;stroke-width:5px"/><line x1="177.5" y1="520" x2="227.5" y2="520" style="fill:none;stroke:#f6ad55;stroke-linecap:square;stroke-width:5px"/><line x1="237.5" y1="520" x2="237.5" y2="520" style="fill:none;stroke:#e2e8f0;stroke-linecap:square;stroke-width:5px"/><line x1="72.5" y1="530" x2="82.5" y2="530" style="fill:none;stroke:#f56565;stroke-linecap:square;stroke-width:5px"/><line x1="62.5" y1="540" x2="72.5" y2="540" style="fill:none;stroke:#f56565;stroke-linecap:square;stroke-width:5px"/><line x1="62.5" y1="560" x2="92.5" y2="560" style="fill:none;stroke:#f56565;stroke-linecap:square;stroke-width:5px"/><line x1="62.5" y1="580" x2="72.5" y2="580" style="fill:none;stroke:#f56565;stroke-linecap:square;stroke-width:5px"/><line x1="82.5" y1="580" x2="122.5" y2="580" style="fill:none;stroke:#7f9cf5;stroke-linecap:square;stroke-width:5px"/><line x1="72.5" y1="590" x2="97.5" y2="590" style="fill:none;stroke:#63b3ed;stroke-linecap:square;stroke-width:5px"/><line x1="107.5" y1="590" x2="107.5" y2="590" style="fill:none;stroke:#63b3ed;stroke-linecap:square;stroke-width:5px"/><line x1="117.5" y1="590" x2="137.5" y2="590" style="fill:none;stroke:#7f9cf5;stroke-linecap:square;stroke-width:5px"/><line x1="142.5" y1="590" x2="142.5" y2="590" style="fill:none;stroke:#e2e8f0;stroke-linecap:square;stroke-width:5px"/><line x1="147.5" y1="590" x2="162.5" y2="590" style="fill:none;stroke:#7f9cf5;stroke-linecap:square;stroke-width:5px"/><line x1="167.5" y1="590" x2="167.5" y2="590" style="fill:none;stroke:#e2e8f0;stroke-linecap:square;stroke-width:5px"/><line x1="172.5" y1="590" x2="197.5" y2="590" style="fill:none;stroke:#7f9cf5;stroke-linecap:square;stroke-width:5px"/><line x1="202.5" y1="590" x2="202.5" y2="590" style="fill:none;stroke:#e2e8f0;stroke-linecap:square;stroke-width:5px"/><line x1="207.5" y1="590" x2="217.5" y2="590" style="fill:none;stroke:#f6ad55;stroke-linecap:square;stroke-width:5px"/><line x1="222.5" y1="590" x2="222.5" y2="590" style="fill:none;stroke:#e2e8f0;stroke-linecap:square;stroke-width:5px"/><line x1="227.5" y1="590" x2="227.5" y2="590" style="fill:none;stroke:#e2e8f0;stroke-linecap:square;stroke-width:5px"/><line x1="62.5" y1="600" x2="72.5" y2="600" style="fill:none;stroke:#f56565;stroke-linecap:square;stroke-width:5px"/><line x1="62.5" y1="620" x2="72.5" y2="620" style="fill:none;stroke:#f56565;stroke-linecap:square;stroke-width:5px"/><line x1="82.5" y1="620" x2="137.5" y2="620" style="fill:none;stroke:#7f9cf5;stroke-linecap:square;stroke-width:5px"/><line x1="72.5" y1="630" x2="97.5" y2="630" style="fill:none;stroke:#7f9cf5;stroke-linecap:square;stroke-width:5px"/><line x1="102.5" y1="630" x2="102.5" y2="630" style="fill:none;stroke:#e2e8f0;stroke-linecap:square;stroke-width:5px"/><line x1="107.5" y1="630" x2="127.5" y2="630" style="fill:none;stroke:#7f9cf5;stroke-linecap:square;stroke-width:5px"/><line x1="132.5" y1="630" x2="132.5" y2="630" style="fill:none;stroke:#e2e8f0;stroke-linecap:square;stroke-width:5px"/><line x1="137.5" y1="630" x2="162.5" y2="630" style="fill:none;stroke:#f6ad55;stroke-linecap:square;stroke-width:5px"/><line x1="167.5" y1="630" x2="167.5" y2="630" style="fill:none;stroke:#e2e8f0;stroke-linecap:square;stroke-width:5px"/><line x1="177.5" y1="630" x2="177.5" y2="630" style="fill:none;stroke:#e2e8f0;stroke-linecap:square;stroke-width:5px"/><line x1="182.5" y1="630" x2="182.5" y2="630" style="fill:none;stroke:#e2e8f0;stroke-linecap:square;stroke-width:5px"/><line x1="187.5" y1="630" x2="187.5" y2="630" style="fill:none;stroke:#e2e8f0;stroke-linecap:square;stroke-width:5px"/><line x1="62.5" y1="640" x2="72.5" y2="640" style="fill:none;stroke:#f56565;stroke-linecap:square;stroke-width:5px"/><line x1="47.5" y1="650" x2="67.5" y2="650" style="fill:none;stroke:#f56565;stroke-linecap:square;stroke-width:5px"/><line x1="32.5" y1="50" x2="32.5" y2="50" style="fill:none;stroke:#959da5;stroke-linecap:square;stroke-width:5px"/><line x1="32.5" y1="60" x2="32.5" y2="60" style="fill:none;stroke:#959da5;stroke-linecap:square;stroke-width:5px"/><line x1="32.5" y1="70" x2="32.5" y2="70" style="fill:none;stroke:#959da5;stroke-linecap:square;stroke-width:5px"/><line x1="32.5" y1="80" x2="32.5" y2="80" style="fill:none;stroke:#959da5;stroke-linecap:square;stroke-width:5px"/><line x1="32.5" y1="90" x2="32.5" y2="90" style="fill:none;stroke:#959da5;stroke-linecap:square;stroke-width:5px"/><line x1="32.5" y1="100" x2="32.5" y2="100" style="fill:none;stroke:#959da5;stroke-linecap:square;stroke-width:5px"/><line x1="32.5" y1="110" x2="32.5" y2="110" style="fill:none;stroke:#959da5;stroke-linecap:square;stroke-width:5px"/><line x1="32.5" y1="120" x2="32.5" y2="120" style="fill:none;stroke:#959da5;stroke-linecap:square;stroke-width:5px"/><line x1="32.5" y1="130" x2="32.5" y2="130" style="fill:none;stroke:#959da5;stroke-linecap:square;stroke-width:5px"/><line x1="32.5" y1="140" x2="27.5" y2="140" style="fill:none;stroke:#959da5;stroke-linecap:square;stroke-width:5px"/><line x1="32.5" y1="150" x2="27.5" y2="150" style="fill:none;stroke:#959da5;stroke-linecap:square;stroke-width:5px"/><line x1="32.5" y1="160" x2="27.5" y2="160" style="fill:none;stroke:#959da5;stroke-linecap:square;stroke-width:5px"/><line x1="32.5" y1="170" x2="27.5" y2="170" style="fill:none;stroke:#959da5;stroke-linecap:square;stroke-width:5px"/><line x1="32.5" y1="180" x2="27.5" y2="180" style="fill:none;stroke:#959da5;stroke-linecap:square;stroke-width:5px"/><line x1="32.5" y1="190" x2="27.5" y2="190" style="fill:none;stroke:#959da5;stroke-linecap:square;stroke-width:5px"/><line x1="32.5" y1="200" x2="27.5" y2="200" style="fill:none;stroke:#959da5;stroke-linecap:square;stroke-width:5px"/><line x1="32.5" y1="210" x2="27.5" y2="210" style="fill:none;stroke:#959da5;stroke-linecap:square;stroke-width:5px"/><line x1="32.5" y1="220" x2="27.5" y2="220" style="fill:none;stroke:#959da5;stroke-linecap:square;stroke-width:5px"/><line x1="32.5" y1="230" x2="27.5" y2="230" style="fill:none;stroke:#959da5;stroke-linecap:square;stroke-width:5px"/><line x1="32.5" y1="240" x2="27.5" y2="240" style="fill:none;stroke:#959da5;stroke-linecap:square;stroke-width:5px"/><line x1="32.5" y1="250" x2="27.5" y2="250" style="fill:none;stroke:#959da5;stroke-linecap:square;stroke-width:5px"/><line x1="32.5" y1="260" x2="27.5" y2="260" style="fill:none;stroke:#959da5;stroke-linecap:square;stroke-width:5px"/><line x1="32.5" y1="270" x2="27.5" y2="270" style="fill:none;stroke:#959da5;stroke-linecap:square;stroke-width:5px"/><line x1="32.5" y1="280" x2="27.5" y2="280" style="fill:none;stroke:#959da5;stroke-linecap:square;stroke-width:5px"/><line x1="32.5" y1="290" x2="27.5" y2="290" style="fill:none;stroke:#959da5;stroke-linecap:square;stroke-width:5px"/><line x1="32.5" y1="300" x2="27.5" y2="300" style="fill:none;stroke:#959da5;stroke-linecap:square;stroke-width:5px"/><line x1="32.5" y1="310" x2="27.5" y2="310" style="fill:none;stroke:#959da5;stroke-linecap:square;stroke-width:5px"/><line x1="32.5" y1="320" x2="27.5" y2="320" style="fill:none;stroke:#959da5;stroke-linecap:square;stroke-width:5px"/><line x1="32.5" y1="330" x2="27.5" y2="330" style="fill:none;stroke:#959da5;stroke-linecap:square;stroke-width:5px"/><line x1="32.5" y1="340" x2="27.5" y2="340" style="fill:none;stroke:#959da5;stroke-linecap:square;stroke-width:5px"/><line x1="32.5" y1="350" x2="27.5" y2="350" style="fill:none;stroke:#959da5;stroke-linecap:square;stroke-width:5px"/><line x1="32.5" y1="360" x2="27.5" y2="360" style="fill:none;stroke:#959da5;stroke-linecap:square;stroke-width:5px"/><line x1="32.5" y1="370" x2="27.5" y2="370" style="fill:none;stroke:#959da5;stroke-linecap:square;stroke-width:5px"/><line x1="32.5" y1="380" x2="27.5" y2="380" style="fill:none;stroke:#959da5;stroke-linecap:square;stroke-width:5px"/><line x1="32.5" y1="390" x2="27.5" y2="390" style="fill:none;stroke:#959da5;stroke-linecap:square;stroke-width:5px"/><line x1="32.5" y1="400" x2="27.5" y2="400" style="fill:none;stroke:#959da5;stroke-linecap:square;stroke-width:5px"/><line x1="32.5" y1="410" x2="27.5" y2="410" style="fill:none;stroke:#959da5;stroke-linecap:square;stroke-width:5px"/><line x1="32.5" y1="420" x2="27.5" y2="420" style="fill:none;stroke:#959da5;stroke-linecap:square;stroke-width:5px"/><line x1="32.5" y1="430" x2="27.5" y2="430" style="fill:none;stroke:#959da5;stroke-linecap:square;stroke-width:5px"/><line x1="32.5" y1="440" x2="27.5" y2="440" style="fill:none;stroke:#959da5;stroke-linecap:square;stroke-width:5px"/><line x1="32.5" y1="450" x2="27.5" y2="450" style="fill:none;stroke:#959da5;stroke-linecap:square;stroke-width:5px"/><line x1="32.5" y1="460" x2="27.5" y2="460" style="fill:none;stroke:#959da5;stroke-linecap:square;stroke-width:5px"/><line x1="32.5" y1="470" x2="27.5" y2="470" style="fill:none;stroke:#959da5;stroke-linecap:square;stroke-width:5px"/><line x1="32.5" y1="480" x2="27.5" y2="480" style="fill:none;stroke:#959da5;stroke-linecap:square;stroke-width:5px"/><line x1="32.5" y1="490" x2="27.5" y2="490" style="fill:none;stroke:#959da5;stroke-linecap:square;stroke-width:5px"/><line x1="32.5" y1="500" x2="27.5" y2="500" style="fill:none;stroke:#959da5;stroke-linecap:square;stroke-width:5px"/><line x1="32.5" y1="510" x2="27.5" y2="510" style="fill:none;stroke:#959da5;stroke-linecap:square;stroke-width:5px"/><line x1="32.5" y1="520" x2="27.5" y2="520" style="fill:none;stroke:#959da5;stroke-linecap:square;stroke-width:5px"/><line x1="32.5" y1="530" x2="27.5" y2="530" style="fill:none;stroke:#959da5;stroke-linecap:square;stroke-width:5px"/><line x1="32.5" y1="540" x2="27.5" y2="540" style="fill:none;stroke:#959da5;stroke-linecap:square;stroke-width:5px"/><line x1="32.5" y1="550" x2="27.5" y2="550" style="fill:none;stroke:#959da5;stroke-linecap:square;stroke-width:5px"/><line x1="32.5" y1="560" x2="27.5" y2="560" style="fill:none;stroke:#959da5;stroke-linecap:square;stroke-width:5px"/><line x1="32.5" y1="570" x2="27.5" y2="570" style="fill:none;stroke:#959da5;stroke-linecap:square;stroke-width:5px"/><line x1="32.5" y1="580" x2="27.5" y2="580" style="fill:none;stroke:#959da5;stroke-linecap:square;stroke-width:5px"/><line x1="32.5" y1="590" x2="27.5" y2="590" style="fill:none;stroke:#959da5;stroke-linecap:square;stroke-width:5px"/><line x1="32.5" y1="600" x2="27.5" y2="600" style="fill:none;stroke:#959da5;stroke-linecap:square;stroke-width:5px"/><line x1="32.5" y1="610" x2="27.5" y2="610" style="fill:none;stroke:#959da5;stroke-linecap:square;stroke-width:5px"/><line x1="32.5" y1="620" x2="27.5" y2="620" style="fill:none;stroke:#959da5;stroke-linecap:square;stroke-width:5px"/><line x1="32.5" y1="630" x2="27.5" y2="630" style="fill:none;stroke:#959da5;stroke-linecap:square;stroke-width:5px"/><line x1="32.5" y1="640" x2="27.5" y2="640" style="fill:none;stroke:#959da5;stroke-linecap:square;stroke-width:5px"/><line x1="32.5" y1="650" x2="27.5" y2="650" style="fill:none;stroke:#959da5;stroke-linecap:square;stroke-width:5px"/></svg>