<svg class="w-6 h-6 fill-current" xmlns="http://www.w3.org/2000/svg" viewBox="0 0 24 24">
<path d="M30.5,26c-0.6,0-1,0.4-1,1c0,1.7-1.3,3-3,3c-1.1,0-2.1-0.6-2.6-1.6c-0.3-0.6-1.4-0.6-1.8,0 c-0.5,1-1.5,1.6-2.6,1.6c-1.1,0-2.1-0.6-2.6-1.6c-0.3-0.6-1.4-0.6-1.8,0c-0.5,1-1.5,1.6-2.6,1.6c-1.1,0-2.1-0.6-2.6-1.6 c-0.3-0.6-1.4-0.6-1.8,0c-0.5,1-1.5,1.6-2.6,1.6c-1.7,0-3-1.3-3-3c0-0.6-0.4-1-1-1c-0.6,0-1,0.4-1,1c0,2.8,2.2,5,5,5 c1.3,0,2.6-0.5,3.5-1.5c0.9,0.9,2.2,1.5,3.5,1.5c1.3,0,2.6-0.5,3.5-1.5c0.9,0.9,2.2,1.5,3.5,1.5c1.3,0,2.6-0.5,3.5-1.5 c0.9,0.9,2.2,1.5,3.5,1.5c2.8,0,5-2.2,5-5C31.5,26.4,31.1,26,30.5,26z"></path> <path fill="#012331" d="M31,0h-4c-0.6,0-1,0.4-1,1v1c0,5.5-4.5,10-10,10C10.5,12,6,7.5,6,2V1c0-0.6-0.4-1-1-1H1C0.4,0,0,0.4,0,1v22 c0,0.6,0.4,1,1,1h4c0.6,0,1-0.4,1-1v-1h20v1c0,0.6,0.4,1,1,1h4c0.6,0,1-0.4,1-1V1C32,0.4,31.6,0,31,0z M15,20h-3v-6.7 c1,0.3,2,0.6,3,0.6V20z M17,13.9c1-0.1,2-0.3,3-0.6V20h-3V13.9z M6,8.6c1,1.5,2.4,2.8,4,3.8V20H6V8.6z M22,20v-7.6 c1.6-0.9,3-2.2,4-3.8V20H22z"></path>
</svg>
