<svg class="w-6 h-6" xmlns="http://www.w3.org/2000/svg" viewBox="0 0 24 15.34"><path d="M13.08,0,.84,7.72C.27,8.07,0,8.46,0,8.9v1.17a1.44,1.44,0,0,0,.87,1.15l6.05,3.5.12,0a.25.25,0,0,0,.12,0,.41.41,0,0,0,.11-.07.21.21,0,0,0,.06-.1l1.36-3.29L5.81,9.65a.52.52,0,0,1-.2-.19.44.44,0,0,1-.07-.19.5.5,0,0,1,0-.21.66.66,0,0,1,.09-.19.52.52,0,0,1,.16-.14l5.29-3.25L13.27.17a.11.11,0,0,0,0-.08s0,0,0-.06a.11.11,0,0,0-.08,0l-.07,0Z" style="fill:#fff"/><path d="M23.13,4.31l-6-3.62-.11,0h-.12a.24.24,0,0,0-.11.06.36.36,0,0,0-.07.1L15.35,4.1l2.84,1.7a.52.52,0,0,1,.2.19.5.5,0,0,1,.07.27.52.52,0,0,1-.07.27.61.61,0,0,1-.2.19L12.86,9.86l-2.27,5.27a.17.17,0,0,0,0,.1.09.09,0,0,0,0,.08l0,0h.1l0,0,3.92-2.36,1.54,2.22a.41.41,0,0,0,.14.12.33.33,0,0,0,.17,0h3.71a.41.41,0,0,0,.19-.05.4.4,0,0,0,.14-.15.31.31,0,0,0,0-.19.31.31,0,0,0-.06-.19l-2.51-3.85,5.08-3.08Q24,7.29,24,6.64V5.48q0-.65-.87-1.17Z" style="fill:#fff"/></svg>
