<svg class="w-6 h-6" fill="currentColor" viewBox="0 0 24 24">
    <path fill-rule="evenodd" d="M6.9,9.657a.959.959,0,0,0-.572-.214H5.47v5.131h.857A.954.954,0,0,0,6.9,14.36a.747.747,0,0,0,.286-.641V10.3A.752.752,0,0,0,6.9,9.657ZM20.844,1H3.156A2.156,2.156,0,0,0,1,3.151v17.7A2.156,2.156,0,0,0,3.156,23H20.844A2.156,2.156,0,0,0,23,20.849V3.151A2.156,2.156,0,0,0,20.844,1ZM8.572,13.728A2.243,2.243,0,0,1,6.2,16.048H3.919V7.923H6.246a2.243,2.243,0,0,1,2.326,2.322v3.483Zm4.944-4.354H10.9v1.887h1.6v1.452H10.9V14.6h2.617v1.452H10.463a.991.991,0,0,1-1.017-.967V8.941a.992.992,0,0,1,.968-1.016h3.1V9.374Zm5.09,5.662c-.648,1.51-1.81,1.209-2.33,0L14.384,7.925h1.6l1.459,5.585L18.9,7.925h1.6l-1.889,7.111Z" clip-rule="evenodd"/>
</svg>
