<svg class="w-6 h-6" version="1.1" viewBox="0 0 32 40" xmlns="http://www.w3.org/2000/svg" xmlns:xlink="http://www.w3.org/1999/xlink">
<defs>
<polygon id="b" points="6.5056 6.8669 0.012278 6.8669 0.012278 0.064755 6.5056 0.064755"/>
<polygon id="a" points="0 12.418 0 4.7033e-4 31.973 4.7033e-4 31.973 12.418 31.973 24.835 0 24.835"/>
</defs>
<g transform="translate(-160 -15)" fill="none" fill-rule="evenodd">
<g transform="translate(160 15)">
<g transform="translate(5.1932 33.017)">
<mask id="d" fill="white">
<use xlink:href="#b"/>
</mask>
<path d="m4.5146 5.0171c0 0.77116 0.21561 1.1566 0.64711 1.1566 0.43447 0 0.65147-0.38548 0.65147-1.1566 0-0.77106-0.217-1.1565-0.65147-1.1565-0.4315 0-0.64711 0.38548-0.64711 1.1565m0.64711 1.8498c-0.89602 0-1.3438-0.61661-1.3438-1.8498 0-1.2329 0.44782-1.8497 1.3438-1.8497s1.3438 0.61679 1.3438 1.8497c0 1.2332-0.44782 1.8498-1.3438 1.8498m-4.2262-0.11486c-0.0092736-0.015145-0.0092736-0.031983 0-0.050514l3.9321-6.5267c0.011963-0.012135 0.023926-0.018249 0.036167-0.018249h0.64711c0.018084 0 0.030881 0.0082778 0.038486 0.02521 0.0073262 0.016744 0.0067698 0.034522-0.0024111 0.052771l-3.9457 6.5222c-0.011963 0.012229-0.024204 0.018249-0.03626 0.018249h-0.62884c-0.018084 0-0.031623-0.0075253-0.040618-0.022952m-0.23091-4.8375c0 0.77087 0.21728 1.1565 0.65156 1.1565 0.43141 0 0.64702-0.38567 0.64702-1.1565 0-0.77125-0.21561-1.1568-0.64702-1.1568-0.43428 0-0.65156 0.38558-0.65156 1.1568m-0.69237 0c0-1.2333 0.4481-1.8498 1.3439-1.8498 0.89296 0 1.3394 0.61651 1.3394 1.8498 0 1.2361-0.44643 1.8541-1.3394 1.8541-0.89583 0-1.3439-0.61802-1.3439-1.8541" fill="#00E7AA" mask="url(#d)"/>
</g>
<path d="m4.6854 26.634v-0.9892c0-0.030666 0.016414-0.045998 0.049799-0.045998h0.97512c0.030232 0 0.045348 0.015333 0.045348 0.045998v0.9892c0 0.033676-0.015116 0.05042-0.045348 0.05042h-0.97512c-0.033385 0-0.049799-0.016744-0.049799-0.05042m-3.6193 1.4905v-0.6119c0-0.030572 0.015023-0.045998 0.045348-0.045998h1.0115c0.030047 0 0.045348-0.016744 0.045348-0.050608v-0.70381c0-0.76053 0.43688-1.1318 1.3106-1.1134h0.62133c0.033292 0 0.049985 0.015333 0.049985 0.045998v0.70851c0 0.030666-0.016693 0.045998-0.049985 0.045998h-0.61234c-0.13604 0-0.2426 0.042048-0.31966 0.12661-0.077064 0.08419-0.11555 0.20008-0.11555 0.3472v0.54286c0 0.033864 0.015023 0.050608 0.045348 0.050608h2.5171c0.030139 0 0.045348 0.015427 0.045348 0.045998v4.6741c0 0.03076-0.015209 0.046092-0.045348 0.046092h-0.78928c-0.030325 0-0.045348-0.015333-0.045348-0.046092v-3.9656c0-0.033676-0.015116-0.050608-0.045348-0.050608h-1.6372c-0.030325 0-0.045348 0.016932-0.045348 0.050608v3.9656c0 0.03076-0.015301 0.046092-0.045441 0.046092h-0.78919c-0.033385 0-0.049799-0.015333-0.049799-0.046092v-3.9656c0-0.033676-0.015301-0.050608-0.045348-0.050608h-1.0115c-0.030325 0-0.045348-0.015333-0.045348-0.045998" fill="#00E7AA"/>
<path d="m31.815 28.918c0-1.8239-1.4575-3.3023-3.2556-3.3023s-3.2556 1.4784-3.2556 3.3023c0 1.8239 1.4575 3.3023 3.2556 3.3023s3.2556-1.4784 3.2556-3.3023" fill="#00E7AA"/>
<path d="m16.279 32.872c-1.8059 0-3.2699 1.4849-3.2699 3.3169 0 1.8317 1.464 3.3167 3.2699 3.3167 1.8059 0 3.2699-1.485 3.2699-3.3167 0-1.8319-1.4639-3.3169-3.2699-3.3169m0 0.83352c1.3499 0 2.4481 1.114 2.4481 2.4834 0 1.369-1.0982 2.4831-2.4481 2.4831-1.3499 0-2.4481-1.114-2.4481-2.4831 0-1.3693 1.0982-2.4834 2.4481-2.4834" fill="#00E7AA"/>
<g transform="translate(0 .093596)">
<mask id="c" fill="white">
<use xlink:href="#a"/>
</mask>
<path d="m2.5898 17.969c0.59926 0.54756 1.1688 1.0095 1.7086 1.3867 0.53926 0.37711 1.2466 0.72394 2.1225 1.0397 0.87478 0.31625 1.6604 0.57117 2.3568 0.76373 0.69645 0.19312 1.5365 0.36046 2.5215 0.50326 0.98384 0.14232 1.7695 0.25595 2.3573 0.34099 0.58785 0.085412 1.3791 0.19895 2.3738 0.34231 0.13781 0.0206 0.46108 0.067352 0.97002 0.14016 0.50857 0.07309 0.88433 0.12727 1.1272 0.16245 0.24288 0.035181 0.62393 0.090022 1.1445 0.16546 0.51988 0.075535 0.93821 0.14834 1.256 0.2203 0.31669 0.071208 0.71518 0.18042 1.1956 0.32622 0.47972 0.14627 0.85744 0.29763 1.1335 0.45547 0.27608 0.15794 0.58146 0.35905 0.91753 0.60193 0.18696 0.13508 0.34767 0.27411 0.4826 0.41671h7.716c-0.067234-0.34861-0.15005-0.68405-0.24825-1.006-0.9358-3.0615-3.4181-5.1756-7.4478-6.342-1.4875-0.42631-4.2583-0.9004-8.3127-1.4212-0.23852-0.03725-0.64053-0.10018-1.2055-0.18964-0.56551-0.088987-1.0865-0.17148-1.5624-0.24636-0.47629-0.075441-0.88313-0.13931-1.2203-0.19312-0.33793-0.053242-0.72214-0.14768-1.1528-0.28493-0.4302-0.1363-0.9205-0.32839-1.4701-0.57672-0.54974-0.24796-0.97308-0.52094-1.2694-0.81857-0.29741-0.29763-0.54974-0.66364-0.75793-1.098-0.20764-0.4343-0.31178-0.91197-0.31178-1.4335 0-1.3142 0.67707-2.4555 2.0322-3.4238 1.3547-0.96776 3.3274-1.452 5.9168-1.452 2.9255 0 5.1916 0.61491 6.7985 1.8427 1.6059 1.2283 2.4098 2.8884 2.4098 4.9804 0 0.24344 0.11944 0.3646 0.36 0.3646h6.3305c0.19131 0 0.28758-0.12116 0.28758-0.3646 0-2.8462-0.72566-5.2781-2.176-7.2971-1.4513-2.0187-3.3755-3.5028-5.773-4.4511-2.3984-0.94875-5.1439-1.4234-8.2374-1.4234-4.4599 0-8.0693 1.0709-10.827 3.2108-2.7579 2.1408-4.1363 4.7798-4.1363 7.9176 0 0.99757 0.1136 1.9277 0.34145 2.791 0.22804 0.86381 0.50968 1.6179 0.84566 2.262 0.33561 0.64492 0.803 1.2407 1.4027 1.7877z" fill="#00E7AA" mask="url(#c)"/>
</g>
<polygon points="20.23 39.495 26.777 39.495 26.777 32.855 20.23 32.855" fill="#00E7AA"/>
</g>
</g>
</svg>
