<svg xmlns="http://www.w3.org/2000/svg" class="w-6 h-6" viewBox="0 0 24 20.96"><path d="M20.35,13.66a3.64,3.64,0,0,0-3.5,2.63H14.69l-3.38-5.81h0l3.37-5.8h2.15a3.65,3.65,0,1,0,0-2H13.55l0,0-4,6.84,0,.05H7.15a3.65,3.65,0,1,0,0,2H9.57l3.95,6.8h3.33a3.65,3.65,0,1,0,3.5-4.67ZM18.47,3.21h0a1.92,1.92,0,1,1,0,.74A3.94,3.94,0,0,1,18.47,3.21ZM3.68,12.4A1.92,1.92,0,1,1,5.6,10.49,1.92,1.92,0,0,1,3.68,12.4Zm16.67,6.92a1.92,1.92,0,0,1-1.87-1.55,2.63,2.63,0,0,1,0-.74,1.91,1.91,0,1,1,1.87,2.29Z" style="fill:#fff;fill-rule:evenodd"/></svg>
