<svg xmlns="http://www.w3.org/2000/svg" width="64" height="64" viewBox="0 0 64 64"><title>ruby-3</title><g fill="#1a202e"><polygon points="42,2.6 42,16 55.4,16 "></polygon> <path fill="#1a202e" d="M57,29V18H41c-0.6,0-1-0.4-1-1V1H8C7.4,1,7,1.4,7,2v27H57z"></path> <path fill="#1a202e" d="M7,56v6c0,0.6,0.4,1,1,1h48c0.6,0,1-0.4,1-1v-6H7z"></path> <path d="M37.5,41.1c0.2-0.2,0.4-0.4,0.4-0.8c0-0.4-0.1-0.6-0.4-0.8c-0.3-0.2-0.7-0.2-1.2-0.2h-1v2.1 h1.1C36.9,41.4,37.3,41.3,37.5,41.1z"></path> <path d="M26.9,39.3h-0.6v2.5H27c0.6,0,1.1-0.1,1.4-0.3s0.4-0.5,0.4-1c0-0.4-0.2-0.8-0.5-0.9 C28,39.4,27.6,39.3,26.9,39.3z"></path> <path d="M61,31H3c-0.6,0-1,0.4-1,1v21c0,0.6,0.4,1,1,1h58c0.6,0,1-0.4,1-1V32C62,31.4,61.6,31,61,31z M29.6,47l-2.2-3.6h-1V47h-2v-9.3h2.7c1.3,0,2.2,0.2,2.8,0.7s0.9,1.2,0.9,2.1c0,0.5-0.2,1-0.5,1.5c-0.3,0.4-0.7,0.8-1.3,1 c1.4,2.1,2.3,3.4,2.7,4H29.6z M39.2,46.3c-0.6,0.5-1.4,0.7-2.5,0.7h-3.5v-9.3h2.9c1.3,0,2.3,0.2,2.9,0.6c0.6,0.4,0.9,1,0.9,1.8 c0,0.6-0.1,1-0.4,1.4c-0.3,0.4-0.6,0.6-1,0.6v0.1c0.6,0.1,1,0.4,1.3,0.7c0.3,0.4,0.4,0.8,0.4,1.4C40.1,45.2,39.8,45.8,39.2,46.3z"></path> <path d="M36.4,43h-1.2v2.4h1.3c0.5,0,0.9-0.1,1.2-0.3c0.3-0.2,0.4-0.5,0.4-1 C38.1,43.3,37.5,43,36.4,43z"></path></g></svg>
